# xmcd
#
# Track frame offsets: 
#        150
#        12197
#        26660
#        38475
#        48287
#        59350
#        74362
#        87040
#        96265
#        106820
#        119657
#        132642
#        141287
#        151295
#        160495
#        170862
#        181995
#        192409
#        204217
#        216125
#
# Disc length: 2994 seconds
#
# Revision: 3
# Processed by: cddbd v1.4PL0 Copyright (c) Steve Scherf et al.
# Submitted via: ExactAudioCopy v0.90b4
#
DISCID=1e0bb014
DTITLE=Golden Gate Quartet - Gospels and Spirituals [CD 1)
DYEAR=1998
DGENRE=Blues
TTITLE0=Joshua fit the battle of Jerico
TTITLE1=Hush!
TTITLE2=Shadrack
TTITLE3=The sun didn't shine
TTITLE4=Didn't it rain?
TTITLE5=He never said a mumblin' world
TTITLE6=Every time that I feel the spirit
TTITLE7=Ol' man lose
TTITLE8=If I had my way
TTITLE9=Stormy weather
TTITLE10=I looked down the road and wondered
TTITLE11=Pure religion
TTITLE12=Saints go marching in
TTITLE13=Rock my soul
TTITLE14=God almighty said
TTITLE15=Motherless child
TTITLE16=John the revelator
TTITLE17=Golden gate gospel train
TTITLE18=Job
TTITLE19=Born ten thousand years ago
EXTD=ID3G: 0
EXTT0=
EXTT1=
EXTT2=
EXTT3=
EXTT4=
EXTT5=
EXTT6=
EXTT7=
EXTT8=
EXTT9=
EXTT10=
EXTT11=
EXTT12=
EXTT13=
EXTT14=
EXTT15=
EXTT16=
EXTT17=
EXTT18=
EXTT19=
PLAYORDER=
